<?xml version="1.0" standalone="no"?><!DOCTYPE svg PUBLIC "-//W3C//DTD SVG 1.1//EN" "http://www.w3.org/Graphics/SVG/1.1/DTD/svg11.dtd"><svg t="1575522829022" class="icon" viewBox="0 0 1024 1024" version="1.1" xmlns="http://www.w3.org/2000/svg" p-id="1129" xmlns:xlink="http://www.w3.org/1999/xlink" width="200" height="200"><defs><style type="text/css"></style></defs><path d="M896 896H128c-38.4 0-64 25.6-64 64s25.6 64 64 64h768c38.4 0 64-25.6 64-64s-25.6-64-64-64" p-id="1130" fill="#707070"></path><path d="M467.2 748.8c6.4 6.4 12.8 12.8 19.2 12.8 6.4 6.4 19.2 6.4 25.6 6.4 6.4 0 19.2 0 25.6-6.4 6.4-6.4 12.8-6.4 19.2-12.8l256-256c25.6-25.6 25.6-64 0-89.6-25.6-25.6-64-25.6-89.6 0L576 550.4V64c0-38.4-25.6-64-64-64S448 25.6 448 64v486.4L300.8 403.2c-25.6-25.6-64-25.6-89.6 0-25.6 25.6-25.6 64 0 89.6l256 256z" p-id="1131" fill="#707070"></path></svg>